HIERARCHY
ROOT Root
{
  OFFSET 0.0 0.0 0.0
  CHANNELS 6 Xposition Yposition Zposition Zrotation Yrotation Xrotation
  JOINT Hips
  {
    OFFSET 0.0 100.0 0.0
    CHANNELS 6 Xposition Yposition Zposition Zrotation Yrotation Xrotation
    JOINT Spine1
    {
      OFFSET -0.013727 5.003763 -0.053727
      CHANNELS 3 Zrotation Yrotation Xrotation
      JOINT Spine2
      {
        OFFSET -0.0 7.125301 -0.029825
        CHANNELS 3 Zrotation Yrotation Xrotation
        JOINT Chest
        {
          OFFSET -1e-06 7.550063 -0.815971
          CHANNELS 3 Zrotation Yrotation Xrotation
          JOINT Neck1
          {
            OFFSET -0.181677 26.311295 -0.553348
            CHANNELS 3 Zrotation Yrotation Xrotation
            JOINT Neck2
            {
              OFFSET -3e-06 7.709397 2.302585
              CHANNELS 3 Zrotation Yrotation Xrotation
              JOINT Head
              {
                OFFSET -5e-06 6.128916 1.953709
                CHANNELS 3 Zrotation Yrotation Xrotation
                JOINT HeadEnd
                {
                  OFFSET 0.003598 16.065403 -1.835379
                  CHANNELS 3 Zrotation Yrotation Xrotation
                }
                JOINT Jaw
                {
                  OFFSET 0.002637 0.475592 3.094941
                  CHANNELS 3 Zrotation Yrotation Xrotation
                }
                JOINT LeftEye
                {
                  OFFSET 3.206381 5.380205 7.586883
                  CHANNELS 3 Zrotation Yrotation Xrotation
                }
                JOINT RightEye
                {
                  OFFSET -3.22244 5.361869 7.558234
                  CHANNELS 3 Zrotation Yrotation Xrotation
                }
              }
            }
          }
          JOINT LeftShoulder
          {
            OFFSET 1.621652 23.237164 5.113413
            CHANNELS 3 Zrotation Yrotation Xrotation
            JOINT LeftArm
            {
              OFFSET 14.919846 2e-06 -5.502326
              CHANNELS 3 Zrotation Yrotation Xrotation
              JOINT LeftForeArm
              {
                OFFSET 28.739307 0.0 -0.002588
                CHANNELS 3 Zrotation Yrotation Xrotation
                JOINT LeftHand
                {
                  OFFSET 27.093981 -1e-06 0.002609
                  CHANNELS 3 Zrotation Yrotation Xrotation
                  JOINT LeftHandThumb1
                  {
                    OFFSET 2.276482 -1.392045 3.191413
                    CHANNELS 3 Zrotation Yrotation Xrotation
                    JOINT LeftHandThumb2
                    {
                      OFFSET 4.012836 -1.828127 1.641654
                      CHANNELS 3 Zrotation Yrotation Xrotation
                      JOINT LeftHandThumb3
                      {
                        OFFSET 2.798515 0.0 -3e-06
                        CHANNELS 3 Zrotation Yrotation Xrotation
                        JOINT LeftHandThumbEnd
                        {
                          OFFSET 3.180793 -4e-06 4e-06
                          CHANNELS 3 Zrotation Yrotation Xrotation
                        }
                      }
                    }
                  }
                  JOINT LeftHandIndex1
                  {
                    OFFSET 3.247555 -0.531998 2.296169
                    CHANNELS 3 Zrotation Yrotation Xrotation
                    JOINT LeftHandIndex2
                    {
                      OFFSET 6.364578 0.01206 0.1786
                      CHANNELS 3 Zrotation Yrotation Xrotation
                      JOINT LeftHandIndex3
                      {
                        OFFSET 3.662364 0.0 0.0
                        CHANNELS 3 Zrotation Yrotation Xrotation
                        JOINT LeftHandIndex4
                        {
                          OFFSET 2.329242 4e-06 4e-06
                          CHANNELS 3 Zrotation Yrotation Xrotation
                          JOINT LeftHandIndexEnd
                          {
                            OFFSET 2.759615 -0.180537 -0.113024
                            CHANNELS 3 Zrotation Yrotation Xrotation
                          }
                        }
                      }
                    }
                  }
                  JOINT LeftHandMiddle1
                  {
                    OFFSET 3.163495 0.240981 1.000332
                    CHANNELS 3 Zrotation Yrotation Xrotation
                    JOINT LeftHandMiddle2
                    {
                      OFFSET 6.19078 -0.259278 -1.002548
                      CHANNELS 3 Zrotation Yrotation Xrotation
                      JOINT LeftHandMiddle3
                      {
                        OFFSET 4.35652 -4e-06 -1e-06
                        CHANNELS 3 Zrotation Yrotation Xrotation
                        JOINT LeftHandMiddle4
                        {
                          OFFSET 2.996877 -8e-06 0.0
                          CHANNELS 3 Zrotation Yrotation Xrotation
                          JOINT LeftHandMiddleEnd
                          {
                            OFFSET 2.304287 -0.294569 -0.031741
                            CHANNELS 3 Zrotation Yrotation Xrotation
                          }
                        }
                      }
                    }
                  }
                  JOINT LeftHandRing1
                  {
                    OFFSET 2.882643 -0.053652 -0.322543
                    CHANNELS 3 Zrotation Yrotation Xrotation
                    JOINT LeftHandRing2
                    {
                      OFFSET 5.854541 -0.486202 -1.373841
                      CHANNELS 3 Zrotation Yrotation Xrotation
                      JOINT LeftHandRing3
                      {
                        OFFSET 4.350578 0.0 3e-06
                        CHANNELS 3 Zrotation Yrotation Xrotation
                        JOINT LeftHandRing4
                        {
                          OFFSET 2.651321 7e-06 2e-06
                          CHANNELS 3 Zrotation Yrotation Xrotation
                          JOINT LeftHandRingEnd
                          {
                            OFFSET 1.936105 0.077687 -7.1e-05
                            CHANNELS 3 Zrotation Yrotation Xrotation
                          }
                        }
                      }
                    }
                  }
                  JOINT LeftHandPinky1
                  {
                    OFFSET 2.8655 -0.310005 -1.600378
                    CHANNELS 3 Zrotation Yrotation Xrotation
                    JOINT LeftHandPinky2
                    {
                      OFFSET 5.087849 -1.331141 -1.77123
                      CHANNELS 3 Zrotation Yrotation Xrotation
                      JOINT LeftHandPinky3
                      {
                        OFFSET 3.070974 4e-06 0.0
                        CHANNELS 3 Zrotation Yrotation Xrotation
                        JOINT LeftHandPinky4
                        {
                          OFFSET 1.549672 0.0 1e-06
                          CHANNELS 3 Zrotation Yrotation Xrotation
                          JOINT LeftHandPinkyEnd
                          {
                            OFFSET 1.944893 -0.157802 0.057219
                            CHANNELS 3 Zrotation Yrotation Xrotation
                          }
                        }
                      }
                    }
                  }
                }
              }
            }
          }
          JOINT RightShoulder
          {
            OFFSET -1.380118 23.180309 5.214158
            CHANNELS 3 Zrotation Yrotation Xrotation
            JOINT RightArm
            {
              OFFSET -15.037196 1.2e-05 -5.545604
              CHANNELS 3 Zrotation Yrotation Xrotation
              JOINT RightForeArm
              {
                OFFSET -28.736639 2e-06 -0.002597
                CHANNELS 3 Zrotation Yrotation Xrotation
                JOINT RightHand
                {
                  OFFSET -27.133619 -0.0 0.002613
                  CHANNELS 3 Zrotation Yrotation Xrotation
                  JOINT RightHandThumb1
                  {
                    OFFSET -2.274032 -1.383988 3.163127
                    CHANNELS 3 Zrotation Yrotation Xrotation
                    JOINT RightHandThumb2
                    {
                      OFFSET -4.011429 -1.827466 1.640914
                      CHANNELS 3 Zrotation Yrotation Xrotation
                      JOINT RightHandThumb3
                      {
                        OFFSET -2.794935 -4e-06 -3e-06
                        CHANNELS 3 Zrotation Yrotation Xrotation
                        JOINT RightHandThumbEnd
                        {
                          OFFSET -3.183852 4e-06 1e-06
                          CHANNELS 3 Zrotation Yrotation Xrotation
                        }
                      }
                    }
                  }
                  JOINT RightHandIndex1
                  {
                    OFFSET -3.253266 -0.520057 2.282866
                    CHANNELS 3 Zrotation Yrotation Xrotation
                    JOINT RightHandIndex2
                    {
                      OFFSET -6.341917 0.012471 0.178266
                      CHANNELS 3 Zrotation Yrotation Xrotation
                      JOINT RightHandIndex3
                      {
                        OFFSET -3.654871 -8e-06 -0.0
                        CHANNELS 3 Zrotation Yrotation Xrotation
                        JOINT RightHandIndex4
                        {
                          OFFSET -2.327586 0.0 1e-06
                          CHANNELS 3 Zrotation Yrotation Xrotation
                          JOINT RightHandIndexEnd
                          {
                            OFFSET -2.76179 -0.180656 -0.113078
                            CHANNELS 3 Zrotation Yrotation Xrotation
                          }
                        }
                      }
                    }
                  }
                  JOINT RightHandMiddle1
                  {
                    OFFSET -3.168106 0.246593 1.00103
                    CHANNELS 3 Zrotation Yrotation Xrotation
                    JOINT RightHandMiddle2
                    {
                      OFFSET -6.180828 -0.258836 -1.000895
                      CHANNELS 3 Zrotation Yrotation Xrotation
                      JOINT RightHandMiddle3
                      {
                        OFFSET -4.348901 0.0 -0.0
                        CHANNELS 3 Zrotation Yrotation Xrotation
                        JOINT RightHandMiddle4
                        {
                          OFFSET -3.00024 -4e-06 -2e-06
                          CHANNELS 3 Zrotation Yrotation Xrotation
                          JOINT RightHandMiddleEnd
                          {
                            OFFSET -2.30252 -0.29437 -0.031706
                            CHANNELS 3 Zrotation Yrotation Xrotation
                          }
                        }
                      }
                    }
                  }
                  JOINT RightHandRing1
                  {
                    OFFSET -2.88569 -0.067952 -0.308858
                    CHANNELS 3 Zrotation Yrotation Xrotation
                    JOINT RightHandRing2
                    {
                      OFFSET -5.854198 -0.48613 -1.373731
                      CHANNELS 3 Zrotation Yrotation Xrotation
                      JOINT RightHandRing3
                      {
                        OFFSET -4.33881 -4e-06 -0.0
                        CHANNELS 3 Zrotation Yrotation Xrotation
                        JOINT RightHandRing4
                        {
                          OFFSET -2.654903 -4e-06 4e-06
                          CHANNELS 3 Zrotation Yrotation Xrotation
                          JOINT RightHandRingEnd
                          {
                            OFFSET -1.933568 0.077527 -5.2e-05
                            CHANNELS 3 Zrotation Yrotation Xrotation
                          }
                        }
                      }
                    }
                  }
                  JOINT RightHandPinky1
                  {
                    OFFSET -2.866425 -0.342796 -1.584145
                    CHANNELS 3 Zrotation Yrotation Xrotation
                    JOINT RightHandPinky2
                    {
                      OFFSET -5.091371 -1.332055 -1.772385
                      CHANNELS 3 Zrotation Yrotation Xrotation
                      JOINT RightHandPinky3
                      {
                        OFFSET -3.062664 -4e-06 1e-06
                        CHANNELS 3 Zrotation Yrotation Xrotation
                        JOINT RightHandPinky4
                        {
                          OFFSET -1.546529 4e-06 -2e-06
                          CHANNELS 3 Zrotation Yrotation Xrotation
                          JOINT RightHandPinkyEnd
                          {
                            OFFSET -1.945119 -0.157718 0.057211
                            CHANNELS 3 Zrotation Yrotation Xrotation
                          }
                        }
                      }
                    }
                  }
                }
              }
            }
          }
        }
      }
    }
    JOINT LeftLeg
    {
      OFFSET 10.043214 -8.434526 2.595655
      CHANNELS 3 Zrotation Yrotation Xrotation
      JOINT LeftShin
      {
        OFFSET -1e-06 -43.221752 -0.802913
        CHANNELS 3 Zrotation Yrotation Xrotation
        JOINT LeftFoot
        {
          OFFSET 1e-06 -42.155094 -3.481523
          CHANNELS 3 Zrotation Yrotation Xrotation
          JOINT LeftToeBase
          {
            OFFSET 0.0 -5.059472 13.231529
            CHANNELS 3 Zrotation Yrotation Xrotation
            JOINT LeftToeEnd
            {
              OFFSET -0.009607 -1.647619 6.513017
              CHANNELS 3 Zrotation Yrotation Xrotation
            }
          }
        }
      }
    }
    JOINT RightLeg
    {
      OFFSET -10.047278 -8.29526 2.620317
      CHANNELS 3 Zrotation Yrotation Xrotation
      JOINT RightShin
      {
        OFFSET 1e-06 -43.362206 -0.805556
        CHANNELS 3 Zrotation Yrotation Xrotation
        JOINT RightFoot
        {
          OFFSET 2e-06 -42.117393 -3.478398
          CHANNELS 3 Zrotation Yrotation Xrotation
          JOINT RightToeBase
          {
            OFFSET -0.0 -5.079609 13.284196
            CHANNELS 3 Zrotation Yrotation Xrotation
            JOINT RightToeEnd
            {
              OFFSET 0.009532 -1.634378 6.460591
              CHANNELS 3 Zrotation Yrotation Xrotation
            }
          }
        }
      }
    }
  }
}
MOTION
Frames: 4
Frame Time: 0.03333333333333333
0.0 0.0 0.0 0.0 -0.0 0.0 0.395813 99.531219 -0.487664 1.851023 -1.771506 -5.175079 -0.730805 0.278479 -1.960659 -0.576112 0.07534 -5.722543 -3.566125 -0.903176 17.424807 -5.540052 7.300469 16.67366 -0.769562 0.036604 -3.486772 -6.607787 2.291906 5.60803 7.7e-05 -2.2e-05 5e-06 -0.043197 0.005647 -0.028617 0.725285 -3.77114 -10.689219 -0.817563 3.789741 -10.693337 -17.35898 -8.420161 15.359363 -57.899925 -17.670502 27.679104 -0.701704 -29.87311 0.255925 -16.053272 1.920471 19.483688 -5.882109 9.861286 0.70259 -10.936875 -0.360575 7.156206 0.0 8.774824 -1e-06 -16.777681 18.708326 6.188394 -1.844033 2.498505 -2.507277 -10.163603 4.678946 4.621109 -20.97603 -3e-06 1e-06 -21.226292 2.451698 -3.594002 1e-06 -6e-06 0.0 -1.362682 2.240799 -0.746324 -21.334921 0.58491 3.008322 -13.821218 -3e-06 1e-06 -23.887178 -0.249079 -0.839484 -61.712952 2.914892 -1.486636 -0.294025 1.679687 0.833256 -14.218214 0.093215 1.30058 -34.212063 -0.287564 0.967169 -20.033218 0.964537 1.212843 1e-06 1e-06 1e-06 -3.440389 0.788234 0.501655 -15.928189 -3.16731 2.999707 -6.338829 -3e-06 1e-06 -18.123453 3.648183 -4.905672 -5e-06 -0.0 -2e-06 7.230082 12.677062 11.511237 58.237316 25.097752 -41.253918 178.667267 52.029507 178.9561 -27.392782 8.417693 11.819319 2.243545 -5.25504 -3.180157 14.282897 -0.826598 6.952505 0.0 -12.690609 0.0 15.82994 -17.775951 2.749752 1.665668 -1.955922 -2.878299 4.727802 -4.17059 4.993925 11.020534 0.0 1e-06 12.10906 -3.735719 -2.866787 1e-06 -1e-06 -1e-06 1.291986 -1.928551 -1.498091 14.800136 0.567464 3.865608 14.24258 -1.34174 -6.660661 19.631975 0.143924 -0.648247 49.438541 -1.175742 -6.047105 0.35303 -1.511152 -0.031941 20.222803 3.684306 2.316628 18.787287 3e-06 -2e-06 10.751635 -0.479872 1.397905 1e-06 1e-06 -1e-06 3.273808 0.305946 -0.580113 21.48682 11.830376 2.266132 8.16293 0.0 -2e-06 18.399094 -3.798988 -4.940581 4e-06 -1e-06 -1e-06 3.460494 3.920193 4.824855 0.00855 -0.201496 4.808411 -6.150088 -2.45622 -4.473313 1.634014 -1.972911 -1.398092 -0.0 -0.0 2e-06 -9.403926 -1.369136 2.613589 -0.005351 0.470447 9.032518 9.30463 9.693913 -6.021267 -1.431625 1.081402 -1.981443 -0.0 0.0 -1e-06 
0.0 0.0 0.0 0.0 -0.0 0.0 0.41332 99.531349 -0.457604 1.865032 -1.792781 -5.167804 -0.717209 0.291585 -1.978245 -0.563319 0.055286 -5.720084 -3.541095 -0.898035 17.452122 -5.563549 7.332458 16.767166 -0.764452 -0.023561 -3.480696 -6.580119 2.262742 5.78835 7.7e-05 -2.3e-05 4e-06 -0.042428 -0.005246 -0.019869 0.731588 -3.783684 -10.684108 -0.82255 3.781453 -10.690162 -17.423384 -8.442763 15.34507 -57.942715 -17.765881 27.933329 -0.666976 -29.623863 0.231705 -16.013056 1.721826 19.527767 -5.88211 9.86129 0.70259 -10.936879 -0.360575 7.156209 1e-06 8.77483 -2e-06 -16.715382 18.751894 6.229808 -1.844034 2.498507 -2.507279 -10.163608 4.678946 4.62111 -20.97604 -3e-06 2e-06 -21.226301 2.451698 -3.594003 1e-06 -6e-06 -0.0 -1.362683 2.240799 -0.746324 -21.334929 0.584908 3.008325 -13.821223 -3e-06 2e-06 -23.887184 -0.24908 -0.839482 -61.728252 2.946965 -1.488892 -0.294025 1.679688 0.833256 -14.218219 0.093215 1.300581 -34.212074 -0.287566 0.967172 -20.033228 0.964535 1.212844 1e-06 1e-06 -0.0 -3.440391 0.788234 0.501657 -15.928201 -3.167313 2.999708 -6.338831 -3e-06 1e-06 -18.123463 3.648185 -4.905675 -5e-06 -0.0 -2e-06 7.628613 12.523269 11.616191 58.317993 24.809534 -40.556332 178.382446 51.380283 178.66748 -27.103535 8.62404 12.557772 2.243542 -5.255041 -3.18016 14.282896 -0.826593 6.952509 -2e-06 -12.690612 -3e-06 15.785773 -17.86359 2.942553 1.665666 -1.955923 -2.878299 4.727801 -4.170589 4.993925 11.02053 3e-06 1e-06 12.109058 -3.735717 -2.866783 1e-06 -1e-06 0.0 1.291985 -1.92855 -1.498093 14.800138 0.56747 3.865613 14.242578 -1.341737 -6.660658 19.631975 0.143924 -0.648243 49.404232 -1.203139 -6.019516 0.353029 -1.511152 -0.031941 20.222801 3.684314 2.316635 18.787283 6e-06 3e-06 10.751631 -0.479868 1.397909 0.0 1e-06 0.0 3.273808 0.305948 -0.58011 21.486824 11.830381 2.266139 8.16293 3e-06 3e-06 18.399092 -3.798986 -4.940574 4e-06 0.0 -1e-06 3.419648 3.802949 4.860857 0.013126 -0.213997 4.743984 -6.093091 -2.403367 -4.469827 1.633994 -1.970225 -1.462016 0.0 0.0 2e-06 -9.43252 -1.383133 2.619214 0.011097 0.471153 9.005836 9.309074 9.702966 -6.022524 -1.432237 1.112417 -1.977991 -0.0 0.0 -1e-06 
0.0 0.0 0.0 0.0 -0.0 0.0 0.425027 99.543549 -0.425393 1.877711 -1.746664 -5.144796 -0.719879 0.307373 -1.99507 -0.550222 0.040194 -5.708372 -3.505903 -0.917521 17.483032 -5.512184 7.320474 16.839779 -0.747577 -0.120115 -3.470555 -6.576784 2.16475 5.913403 7.7e-05 -2.3e-05 6e-06 -0.040974 -0.003078 -0.018171 0.740466 -3.778282 -10.678523 -0.82856 3.77999 -10.679328 -17.432531 -8.46559 15.313193 -58.020851 -17.819359 28.069672 -0.655005 -29.480804 0.257653 -16.095491 1.449511 19.475817 -5.88211 9.861292 0.702591 -10.936881 -0.360575 7.156211 1e-06 8.774831 0.0 -16.688808 18.793232 6.227408 -1.844034 2.498505 -2.507279 -10.16361 4.678948 4.621113 -20.97604 -4e-06 3e-06 -21.226301 2.451698 -3.594002 1e-06 -6e-06 0.0 -1.362683 2.240801 -0.746324 -21.334934 0.584909 3.008326 -13.821227 -2e-06 2e-06 -23.887196 -0.24908 -0.839482 -61.66872 2.997449 -1.501122 -0.294025 1.679688 0.833256 -14.218221 0.093216 1.300581 -34.212082 -0.287566 0.967172 -20.03323 0.964537 1.212846 1e-06 1e-06 0.0 -3.440391 0.788235 0.501656 -15.928201 -3.167312 2.99971 -6.338833 -3e-06 1e-06 -18.123465 3.648184 -4.905673 -4e-06 -0.0 -2e-06 8.01646 12.364 11.7372 58.307598 24.221962 -39.250439 178.05957 49.820225 178.527008 -26.051094 9.74287 13.440834 2.243544 -5.255039 -3.180161 14.282902 -0.826593 6.952507 -3e-06 -12.690612 -0.0 15.905173 -18.025932 3.162862 1.665667 -1.955922 -2.8783 4.727804 -4.170589 4.993927 11.020535 4e-06 2e-06 12.109061 -3.735718 -2.866785 1e-06 0.0 0.0 1.291986 -1.92855 -1.498091 14.800142 0.567468 3.865612 14.242582 -1.341737 -6.66066 19.631983 0.143923 -0.648242 49.607666 -1.262637 -6.094103 0.35303 -1.511152 -0.031941 20.222809 3.684314 2.316632 18.787289 6e-06 2e-06 10.751637 -0.479866 1.397909 1e-06 1e-06 1e-06 3.273809 0.305947 -0.580109 21.486832 11.830382 2.266135 8.162935 2e-06 1e-06 18.399099 -3.798987 -4.940579 4e-06 -1e-06 -1e-06 3.389114 3.72562 4.958643 0.01748 -0.23114 4.497135 -6.06048 -2.422334 -4.35387 1.63158 -1.983442 -1.518176 -0.0 -0.0 2e-06 -9.457941 -1.380209 2.719264 0.030687 0.467684 8.800957 9.32362 9.678717 -5.959039 -1.433788 1.122194 -1.966548 0.0 0.0 -1e-06 
0.0 0.0 0.0 0.0 -0.0 0.0 0.425542 99.563622 -0.386232 1.897812 -1.62415 -5.106925 -0.745182 0.312615 -2.002685 -0.561793 0.048546 -5.693558 -3.443036 -0.990761 17.511515 -5.426198 7.256611 16.900976 -0.733303 -0.207971 -3.452669 -6.570291 2.026289 6.036181 7.6e-05 -2.2e-05 6e-06 -0.043709 0.007232 -0.024884 0.743993 -3.766502 -10.688881 -0.837456 3.788391 -10.681643 -17.391953 -8.468871 15.261821 -58.116306 -17.842628 28.156483 -0.62722 -29.379276 0.288255 -16.401867 1.084533 19.418741 -5.88211 9.861292 0.702591 -10.936878 -0.360576 7.156209 1e-06 8.774831 -1e-06 -16.691725 18.830442 6.181105 -1.844033 2.498505 -2.507279 -10.163607 4.678947 4.621109 -20.97604 -5e-06 2e-06 -21.226301 2.451696 -3.594002 1e-06 -6e-06 -0.0 -1.362682 2.240798 -0.746324 -21.334929 0.584908 3.008324 -13.821223 -3e-06 2e-06 -23.887184 -0.249079 -0.839482 -61.594318 3.050636 -1.524418 -0.294025 1.679688 0.833257 -14.218219 0.093214 1.300581 -34.212074 -0.287566 0.967172 -20.033226 0.964537 1.212845 1e-06 1e-06 0.0 -3.44039 0.788234 0.501656 -15.9282 -3.167312 2.999709 -6.338831 -3e-06 1e-06 -18.123459 3.648184 -4.905672 -4e-06 -1e-06 -1e-06 8.412329 12.147502 11.856135 58.003922 23.144533 -36.911964 177.723236 47.242039 178.562576 -22.873423 12.83496 14.600318 2.243543 -5.255041 -3.180159 14.2829 -0.826597 6.95251 -1e-06 -12.690614 -0.0 16.175236 -18.136032 3.379611 1.665668 -1.955924 -2.878302 4.727802 -4.170591 4.993927 11.020535 1e-06 1e-06 12.10906 -3.735722 -2.866785 0.0 -1e-06 -2e-06 1.291986 -1.928552 -1.498089 14.800139 0.567466 3.865613 14.24258 -1.341738 -6.660662 19.631977 0.143923 -0.648245 50.038036 -1.271767 -6.244881 0.35303 -1.511153 -0.031941 20.222803 3.684309 2.316632 18.787287 2e-06 -1e-06 10.751634 -0.479871 1.397908 -1e-06 1e-06 -0.0 3.273808 0.305947 -0.58011 21.486828 11.83038 2.266135 8.162935 1e-06 -1e-06 18.399097 -3.79899 -4.94058 4e-06 -1e-06 0.0 3.347865 3.585067 5.10286 0.021002 -0.236765 4.11256 -6.068934 -2.464707 -4.153934 1.629659 -2.027992 -1.557683 0.0 -0.0 2e-06 -9.493272 -1.407907 2.88679 0.046908 0.473983 8.488762 9.34514 9.610161 -5.863539 -1.435775 1.074336 -1.953622 0.0 0.0 -1e-06 
